<?xml version="1.0" encoding="utf-8"?>
<!-- Generator: Adobe Illustrator 23.0.1, SVG Export Plug-In . SVG Version: 6.00 Build 0)  -->
<svg version="1.1" id="Layer_1" xmlns="http://www.w3.org/2000/svg" xmlns:xlink="http://www.w3.org/1999/xlink" x="0px" y="0px"
	 viewBox="0 0 266.9 266.9" style="enable-background:new 0 0 266.9 266.9;" xml:space="preserve">
<style type="text/css">
	.st0{fill:#767676;}
</style>
<g>
	<path class="st0" d="M248.1,4.6H18.8C11,4.6,4.6,11,4.6,18.8v229.3c0,7.9,6.4,14.2,14.2,14.2h229.3v0c7.9,0,14.2-6.4,14.2-14.2
		V18.8C262.3,10.9,255.9,4.6,248.1,4.6z M222.3,79.9h-20.6c-16.2,0-19.3,7.6-19.3,18.9v24.8h38.5l-5,38.9h-33.5v99.8h-40.1v-99.8
		h-33.6v-38.9h33.6V94.9c0-33.3,20.3-51.4,50-51.4c14.2,0,26.4,1,30,1.5V79.9z"/>
</g>
</svg>
