<svg id="Layer_1" data-name="Layer 1" xmlns="http://www.w3.org/2000/svg" viewBox="0 0 304.17 257.7"><defs><style>.cls-1{fill:#bd7824;}</style></defs><title>Shop-brandcolour</title><path class="cls-1" d="M300.26,26.58c-3.21-3.08-7.19-3-11.22-3h-206c-9.81,0-9.8,0-12-9.72-.25-1.13-.59-2.24-.93-3.35C67.89,2.78,64.4.06,56.52,0Q35,0,13.53,0C5.26.06-.09,4.88,0,12.05c.09,6.88,5.45,11.58,13.45,11.62,10.16.06,20.33.24,30.49-.09,3.94-.13,5.34,1.06,6.14,4.86q15,71,30.39,141.91a9.25,9.25,0,0,1-1,7c-3.19,5.82-6.58,11.57-8.57,18-2.42,7.79,2.56,15,10.68,15.47,1.85.1,3.7,0,5.55,0-12.38,5.61-18.79,15.86-16.74,27.32a23.43,23.43,0,0,0,46,1.24c2.83-11.73-3.14-22-16.78-28.37H251.51c-13.24,5.91-19.26,15.67-17.25,27.37,1.79,10.4,11.08,18.55,22,19.26,10.09.66,20.29-6.3,23.4-16.07A23,23,0,0,0,278,223.19c-3.12-5.88-8.23-9.46-15.71-12.35,3.28,0,4.94.06,6.6,0,6.5-.27,11.57-5,11.93-11.16s-4.32-11.38-10.8-12.21a43.67,43.67,0,0,0-5.49-.18H100.75c5.33-8,5.14-15.86,1.85-24.25l22.21-2.6,90.28-10.58c26.13-3.05,52.26-6,78.37-9.15,6.5-.78,10.63-5.31,10.65-11.79.1-31.16,0-62.32.06-93.48A11.66,11.66,0,0,0,300.26,26.58Z"/></svg>